<?xml version="1.0" encoding="UTF-8"?>
<svg xmlns="http://www.w3.org/2000/svg" viewBox="0 0 125.79 78">
  <defs>
    <style>
      .cls-1 {
        opacity: .7;
      }

      .cls-2 {
        fill: #fff;
      }

      .cls-3 {
        fill: none;
      }
    </style>
  </defs>
  <g>
    <g class="cls-1">
      <g>
        <polygon class="cls-3" points="81.47 15.69 83.71 14.39 81.22 12.95 81.22 12.95 78.23 11.23 78.23 11.22 75.49 9.64 72.61 7.98 72.49 7.91 69.62 6.25 69.5 6.19 66.76 4.6 63.9 6.25 63.9 6.25 60.91 7.98 60.91 7.98 55.79 10.94 60.78 13.82 63.64 12.17 63.64 12.17 66.63 10.44 66.63 10.44 69.62 8.71 69.89 8.71 70 8.78 73.24 10.65 73.24 10.65 79.72 14.39 70 20 66.76 21.87 63.27 19.86 63.27 19.86 60.28 18.13 60.28 18.13 51.81 13.24 49.81 14.39 58.29 19.28 58.29 19.28 61.28 21.01 61.28 21.01 64.27 22.74 64.27 22.74 66.76 24.18 81.22 15.83 81.47 15.69"/>
        <polygon class="cls-3" points="69.26 15.83 69.5 15.69 71.75 14.39 69.75 13.24 67.26 14.68 67.01 14.82 64.77 16.12 66.76 17.27 69.26 15.83"/>
        <path class="cls-2" d="M60.28,18.13l2.99,1.73h0s3.49,2.01,3.49,2.01l3.24-1.87,9.72-5.61-6.48-3.74h0s-3.24-1.87-3.24-1.87l-.12-.07h-.27l-2.99,1.73h0l-2.99,1.73h0l-2.86,1.65-4.98-2.88-3.99,2.3,8.47,4.89h0Zm6.73-3.31l.25-.14,2.49-1.44,1.99,1.15-2.24,1.29-.25,.14-2.49,1.44-1.99-1.15,2.24-1.29Z"/>
        <path class="cls-2" d="M66.76,0l-24.93,14.39,2.98,1.72v9.35c-.51,.21-.86,.71-.86,1.29,0,.61,.4,1.13,.94,1.32-.32,.14-.53,.38-.53,.38l-.36,3.41c1.37,1.04,2.7,0,2.7,0l-.36-3.41c-.18-.19-.35-.31-.52-.38,.54-.19,.94-.71,.94-1.32s-.36-1.08-.86-1.29v-8.73l17.38,10.03v2.3l-14.96-8.64v4.82s14.96,8.42,14.96,8.42v2.3l-14.96-8.27v4.45s18.94,10.73,18.94,10.73v-14.39l1.99-1.15,3.99-2.3,18.44-10.65L66.76,0Zm14.46,15.83l-14.46,8.35-2.49-1.44h0s-2.99-1.73-2.99-1.73h0s-2.99-1.73-2.99-1.73h0s-8.47-4.89-8.47-4.89l1.99-1.15,3.99-2.3,5.12-2.96h0l2.99-1.73h0l2.86-1.65,2.74,1.58,.12,.07,2.87,1.66,.11,.06,2.88,1.66,2.74,1.58h0s2.99,1.73,2.99,1.73h0s2.49,1.44,2.49,1.44l-2.24,1.29-.25,.14Z"/>
        <polygon class="cls-2" points="73.24 25.04 69.25 27.34 69.25 34.25 81.22 27.34 81.22 29.65 69.25 36.55 69.25 41.16 85.21 31.95 85.21 20.44 73.24 27.34 73.24 25.04"/>
      </g>
      <g>
        <path class="cls-2" d="M43.35,59.18h-6.81v-2.59h1.36v-3.76h-1.25v-2.61h10.47v2.61h-1.28v3.66c.6-.06,1.13-.16,1.54-.27v2.53c-.86,.27-2.45,.43-4.03,.43Zm9.38,4.15c0,2.63-3.35,3.52-7.59,3.52s-7.59-.9-7.59-3.52,3.35-3.52,7.59-3.52,7.59,.9,7.59,3.52Zm-11.72-6.73h1.71v-3.76h-1.71v3.76Zm8.17,6.73c0-.7-1.81-.95-4.05-.95s-4.05,.25-4.05,.95,1.81,.97,4.05,.97,4.05-.25,4.05-.97Zm.16-5.57h-1.5v-2.63h1.5v-1.13h-1.5v-2.63h1.5v-1.34h3.23v9.5h-3.23v-1.77Z"/>
        <path class="cls-2" d="M54.62,59.45v-2.94c1.69-.27,3.04-2.53,3.04-6.34l3.11,.12c0,1.21-.12,2.3-.35,3.31l3.17,2.94v-6.42h3.04v2.53h1.5v-2.61h3.07v9.67h-3.07v-4.07h-1.5v3.52h-3.04v-1.85l-1.69,1.67-2.61-2.51c-1.09,1.83-2.74,2.92-4.67,2.98Zm16.74,3.83c0,2.63-3.44,3.56-7.8,3.56s-7.8-.93-7.8-3.56,3.44-3.56,7.8-3.56,7.8,.93,7.8,3.56Zm-3.5,0c0-.72-1.95-.97-4.3-.97s-4.3,.25-4.3,.97,1.95,.97,4.3,.97,4.3-.23,4.3-.97Z"/>
        <path class="cls-2" d="M89.71,63.05v3.02h-16.81v-3.02h2.55v-5.78h3.31v5.78h1.73v-5.78h3.31v5.78h5.92Zm-4.24-9.61h-11.72v-3.02h15.08v10.96h-3.37v-7.94Z"/>
        <path class="cls-2" d="M104.29,60.23v1.25h2.69v5.37h-3.33v-2.78h-11.62v-2.59h2.76v-1.25h-3.66v-2.61h16.81v2.61h-3.66Zm-12.38-6.83c0-2.53,3.25-3.64,7.63-3.64s7.63,1.11,7.63,3.64-3.25,3.64-7.63,3.64-7.63-1.11-7.63-3.64Zm3.5,0c0,.74,1.63,1.13,4.13,1.13s4.13-.39,4.13-1.13-1.63-1.13-4.13-1.13-4.13,.41-4.13,1.13Zm5.64,6.83h-3.04v1.25h3.04v-1.25Z"/>
        <path class="cls-2" d="M125.79,63.91v2.74h-15.1v-5.27h2.65v-1.65h-3.97v-2.53h7.65c1.54,0,3.27-.16,4.3-.6v2.53c-1.03,.45-2.71,.6-4.36,.6h-.35v2.51h-2.63v1.67h11.81Zm-15.61-10.66c0-2.26,2.1-3.39,5.1-3.39s5.1,1.13,5.1,3.39-2.1,3.39-5.1,3.39-5.1-1.13-5.1-3.39Zm3.17,0c0,.66,.76,.97,1.93,.97s1.93-.31,1.93-.97-.76-.97-1.93-.97-1.93,.31-1.93,.97Zm8.91,6.95v-10.16h3.29v12.9h-3.29v-.47h-4.28v-2.28h4.28Z"/>
        <g>
          <path class="cls-2" d="M12.01,54.46c0,1.94-1.42,3.36-2.82,3.6,1.54,.25,3.28,1.59,3.28,3.75,0,3.23-2.74,5.25-6.22,5.25-3.69,0-5.97-2.06-6.24-5.29H3.69c.14,1.34,.99,2.14,2.55,2.14s2.57-.84,2.57-2.08c0-1.4-1.17-2.14-2.93-2.14h-1.67v-3.05h1.67c1.52,0,2.43-.82,2.43-2.1s-.82-2-2.23-2-2.14,1.17-2.14,2.37H.27c0-3.19,2.41-5.5,5.85-5.5s5.89,2.04,5.89,5.05Z"/>
          <path class="cls-2" d="M19.17,61.77h3.69c.14,1.34,.91,2.12,2.45,2.12s2.45-1.13,2.45-2.68-.91-2.66-2.51-2.66c-1.18,0-1.92,.51-2.37,1.13h-3.4l.49-9.81h10.61v3.19h-7.21l-.19,3.15c.72-.43,1.63-.7,2.7-.7,3.3,0,5.52,2.12,5.52,5.69s-2.64,5.85-6.1,5.85c-3.65,0-5.87-2.06-6.14-5.29Z"/>
          <path class="cls-2" d="M9.42,66.75c0-1.63,.54-2.88,1.52-4.45l4.33-6.86h4.24l-3.81,5.69c.1-.04,.29-.08,.47-.08,3.28,0,5.97,2.29,5.97,5.69s-2.84,5.89-6.37,5.89-6.37-2.29-6.37-5.87Zm9.08,.02c0-1.5-1.05-2.68-2.72-2.68s-2.72,1.17-2.72,2.68,1.05,2.68,2.72,2.68,2.72-1.17,2.72-2.68Z"/>
        </g>
        <g>
          <path class="cls-2" d="M36.82,74.43h.77c.02,.64,.5,1.13,1.33,1.13s1.32-.47,1.32-1.07c0-.67-.53-1.06-1.43-1.06h-.65v-.64h.65c.75,0,1.26-.43,1.26-1.04,0-.58-.46-1.05-1.24-1.05s-1.24,.56-1.24,1.19h-.78c0-1.04,.8-1.86,2.01-1.86s2.01,.76,2.01,1.69c0,.73-.51,1.23-1.06,1.36,.6,.11,1.21,.58,1.21,1.4,0,.99-.84,1.75-2.09,1.75s-2.06-.77-2.1-1.81Z"/>
          <path class="cls-2" d="M43.82,72.21c1.15,0,2.09,.79,2.09,2s-.95,2.03-2.15,2.03-2.15-.79-2.15-2.03c0-.61,.21-1.08,.58-1.63l1.61-2.4h.89l-1.49,2.17c.14-.07,.38-.14,.64-.14Zm1.32,2c0-.76-.53-1.35-1.38-1.35s-1.39,.6-1.39,1.35,.53,1.35,1.39,1.35,1.38-.59,1.38-1.35Z"/>
          <path class="cls-2" d="M46.37,74.43h.77c.02,.64,.49,1.13,1.32,1.13s1.33-.58,1.33-1.35-.53-1.32-1.32-1.32c-.65,0-1.03,.33-1.23,.7h-.76l.17-3.41h3.6v.67h-2.89l-.1,1.94c.22-.27,.66-.57,1.34-.57,1.12,0,1.95,.81,1.95,1.99s-.85,2.03-2.09,2.03-2.05-.78-2.09-1.81Z"/>
          <path class="cls-2" d="M54.26,75.4h3.26v.7h-4.03v-5.93h.78v5.22Z"/>
          <path class="cls-2" d="M59.16,70.42c0,.29-.21,.5-.51,.5s-.5-.21-.5-.5,.21-.5,.5-.5,.51,.21,.51,.5Zm-.89,5.69v-4.24h.76v4.24h-.76Z"/>
          <path class="cls-2" d="M62.29,72.54h-.94v3.56h-.76v-3.56h-.84v-.67h.84v-.72c0-.7,.41-1.19,1.13-1.19,.18,0,.36,.01,.5,.04v.64c-.1-.02-.25-.02-.36-.02-.31,0-.5,.2-.5,.55v.7h.94v.67Z"/>
          <path class="cls-2" d="M62.59,73.98c0-1.27,.89-2.22,2.12-2.22s2.12,.95,2.12,2.22c0,.1,0,.21-.01,.31h-3.46c.08,.73,.61,1.27,1.36,1.27,.58,0,1.03-.27,1.18-.61h.78c-.23,.73-.99,1.26-1.96,1.26-1.24,0-2.12-.95-2.12-2.22Zm2.12-1.58c-.76,0-1.28,.53-1.36,1.27h2.73c-.09-.74-.61-1.27-1.37-1.27Z"/>
          <path class="cls-2" d="M67.72,76.1v-6.11h.76v6.11h-.76Z"/>
          <path class="cls-2" d="M73.71,73.98c0,1.27-.91,2.22-2.16,2.22s-2.17-.95-2.17-2.22,.91-2.22,2.17-2.22,2.16,.95,2.16,2.22Zm-3.58,0c0,.88,.58,1.55,1.42,1.55s1.41-.67,1.41-1.55-.58-1.55-1.41-1.55-1.42,.67-1.42,1.55Z"/>
          <path class="cls-2" d="M75.37,71.87v.64c.18-.31,.66-.75,1.44-.75,1,0,1.7,.72,1.7,1.86v2.48h-.76v-2.35c0-.86-.41-1.32-1.1-1.32-.74,0-1.27,.7-1.27,1.48v2.19h-.76v-4.23h.76Z"/>
          <path class="cls-2" d="M79.58,76.5h.78c.09,.45,.47,.84,1.23,.84s1.3-.52,1.3-1.35v-.58c-.21,.36-.73,.73-1.5,.73-1.2,0-2.09-.94-2.09-2.18s.9-2.2,2.09-2.2c.77,0,1.29,.37,1.5,.73v-.63h.76v4.14c0,1.17-.85,2-2.06,2s-1.86-.7-2-1.5Zm3.32-2.54c0-.87-.59-1.52-1.45-1.52s-1.41,.66-1.41,1.52,.56,1.52,1.41,1.52,1.45-.66,1.45-1.52Z"/>
          <path class="cls-2" d="M91.02,70.17v.69h-3.43v1.86h3.17v.69h-3.17v2h3.5v.69h-4.28v-5.93h4.21Z"/>
          <path class="cls-2" d="M91.61,73.98c0-1.26,.9-2.22,2.09-2.22,.77,0,1.29,.37,1.5,.73v-2.51h.76v6.11h-.76v-.63c-.21,.36-.73,.73-1.5,.73-1.2,0-2.09-.95-2.09-2.22Zm3.61,0c0-.88-.59-1.55-1.45-1.55s-1.41,.67-1.41,1.55,.56,1.55,1.41,1.55,1.45-.67,1.45-1.55Z"/>
          <path class="cls-2" d="M100.13,76.1v-.64c-.18,.31-.66,.75-1.44,.75-1,0-1.7-.72-1.7-1.86v-2.48h.76v2.35c0,.86,.41,1.32,1.1,1.32,.74,0,1.27-.7,1.27-1.48v-2.19h.76v4.23h-.76Z"/>
          <path class="cls-2" d="M103.97,76.2c-1.26,0-2.18-.95-2.18-2.22s.91-2.22,2.16-2.22c1,0,1.78,.64,1.99,1.52h-.78c-.17-.5-.61-.85-1.21-.85-.84,0-1.41,.67-1.41,1.55s.57,1.55,1.41,1.55c.6,0,1.06-.36,1.23-.87h.78c-.23,.92-1.01,1.54-1.99,1.54Z"/>
          <path class="cls-2" d="M106.6,73.98c0-1.26,.9-2.22,2.09-2.22,.77,0,1.29,.37,1.5,.73v-.63h.76v4.23h-.76v-.63c-.21,.36-.73,.73-1.5,.73-1.2,0-2.09-.95-2.09-2.22Zm3.61,0c0-.88-.59-1.55-1.45-1.55s-1.41,.67-1.41,1.55,.56,1.55,1.41,1.55,1.45-.67,1.45-1.55Z"/>
          <path class="cls-2" d="M114.29,72.54h-.94v3.56h-.76v-3.56h-.94v-.67h.94v-1.29h.76v1.29h.94v.67Z"/>
          <path class="cls-2" d="M115.89,70.42c0,.29-.21,.5-.51,.5s-.5-.21-.5-.5,.21-.5,.5-.5,.51,.21,.51,.5Zm-.89,5.69v-4.24h.76v4.24h-.76Z"/>
          <path class="cls-2" d="M120.99,73.98c0,1.27-.91,2.22-2.16,2.22s-2.17-.95-2.17-2.22,.91-2.22,2.17-2.22,2.16,.95,2.16,2.22Zm-3.58,0c0,.88,.58,1.55,1.42,1.55s1.41-.67,1.41-1.55-.58-1.55-1.41-1.55-1.42,.67-1.42,1.55Z"/>
          <path class="cls-2" d="M122.66,71.87v.64c.18-.31,.66-.75,1.44-.75,1,0,1.7,.72,1.7,1.86v2.48h-.76v-2.35c0-.86-.41-1.32-1.1-1.32-.74,0-1.27,.7-1.27,1.48v2.19h-.76v-4.23h.76Z"/>
        </g>
      </g>
    </g>
  </g>
</svg>