<?xml version="1.0" encoding="UTF-8"?>
<svg xmlns="http://www.w3.org/2000/svg" viewBox="0 0 455.19 85.78">
  <defs>
    <style>
      .cls-1 {
        fill: #fff;
      }

      .cls-2 {
        fill: #c2a46a;
      }

      .cls-3 {
        fill: #9a7835;
      }
    </style>
  </defs>
  <g>
    <path class="cls-1" d="M154.88,34.69h-24.81v-9.43h4.96V11.58h-4.54V2.08h38.14V11.58h-4.68v13.33c2.2-.21,4.11-.57,5.6-.99v9.22c-3.12,.99-8.93,1.56-14.68,1.56Zm34.17,15.1c0,9.57-12.19,12.83-27.65,12.83s-27.65-3.26-27.65-12.83,12.19-12.83,27.65-12.83,27.65,3.26,27.65,12.83Zm-42.68-24.53h6.24V11.58h-6.24v13.68Zm29.77,24.53c0-2.55-6.59-3.47-14.75-3.47s-14.75,.92-14.75,3.47,6.59,3.55,14.75,3.55,14.75-.92,14.75-3.55Zm.57-20.27h-5.46v-9.57h5.46v-4.11h-5.46V6.26h5.46V1.37h11.77V35.96h-11.77v-6.45Z"/>
    <path class="cls-1" d="M195.93,35.68v-10.7c6.17-.99,11.06-9.22,11.06-23.11l11.34,.43c0,4.39-.42,8.36-1.28,12.05l11.56,10.71V1.65h11.06V10.87h5.46V1.37h11.2V36.6h-11.2v-14.82h-5.46v12.83h-11.06v-6.74l-6.17,6.1-9.5-9.14c-3.97,6.66-10,10.63-17.01,10.85Zm60.97,13.97c0,9.57-12.55,12.97-28.43,12.97s-28.43-3.4-28.43-12.97,12.55-12.97,28.43-12.97,28.43,3.4,28.43,12.97Zm-12.76,0c0-2.62-7.09-3.55-15.67-3.55s-15.67,.92-15.67,3.55,7.09,3.55,15.67,3.55,15.67-.85,15.67-3.55Z"/>
    <path class="cls-1" d="M323.75,48.8v10.99h-61.25v-10.99h9.29V27.74h12.05v21.06h6.31V27.74h12.05v21.06h21.55Zm-15.45-35.02h-42.68V2.79h54.94V42.7h-12.26V13.77Z"/>
    <path class="cls-1" d="M376.85,38.52v4.54h9.78v19.57h-12.12v-10.14h-42.32v-9.43h10.07v-4.54h-13.33v-9.5h61.25v9.5h-13.33Zm-45.09-24.88c0-9.22,11.84-13.26,27.79-13.26s27.79,4.04,27.79,13.26-11.84,13.26-27.79,13.26-27.79-4.04-27.79-13.26Zm12.76,0c0,2.69,5.95,4.11,15.03,4.11s15.03-1.42,15.03-4.11-5.96-4.11-15.03-4.11-15.03,1.49-15.03,4.11Zm20.56,24.88h-11.06v4.54h11.06v-4.54Z"/>
    <path class="cls-1" d="M455.19,51.91v10h-55.01v-19.21h9.64v-6.02h-14.46v-9.22h27.86c5.6,0,11.91-.57,15.67-2.2v9.22c-3.76,1.63-9.86,2.2-15.88,2.2h-1.28v9.14h-9.57v6.1h43.03Zm-56.86-38.85c0-8.22,7.66-12.34,18.57-12.34s18.57,4.11,18.57,12.34-7.66,12.33-18.57,12.33-18.57-4.11-18.57-12.33Zm11.56,0c0,2.41,2.77,3.54,7.02,3.54s7.02-1.13,7.02-3.54-2.77-3.55-7.02-3.55-7.02,1.13-7.02,3.55Zm32.47,25.31V1.37h11.98V48.37h-11.98v-1.7h-15.6v-8.29h15.6Z"/>
    <g>
      <path class="cls-1" d="M44.39,18.66c0,7.15-5.25,12.41-10.43,13.32,5.71,.91,12.11,5.86,12.11,13.86,0,11.96-10.13,19.42-23,19.42-13.63,0-22.08-7.61-23.07-19.57H13.63c.53,4.95,3.65,7.92,9.44,7.92s9.52-3.12,9.52-7.69c0-5.18-4.34-7.92-10.81-7.92h-6.17v-11.27h6.17c5.64,0,8.99-3.04,8.99-7.77s-3.05-7.39-8.22-7.39-7.92,4.34-7.92,8.76H.99C.99,8.53,9.9,0,22.61,0s21.78,7.54,21.78,18.66Z"/>
      <path class="cls-3" d="M70.87,45.69h13.63c.53,4.95,3.35,7.84,9.06,7.84s9.06-4.19,9.06-9.9-3.35-9.82-9.29-9.82c-4.34,0-7.08,1.9-8.76,4.19h-12.56l1.83-36.25h39.21V13.55h-26.65l-.69,11.65c2.67-1.6,6.02-2.59,9.98-2.59,12.18,0,20.41,7.84,20.41,21.02s-9.75,21.62-22.54,21.62c-13.48,0-21.7-7.61-22.69-19.57Z"/>
      <path class="cls-2" d="M34.83,64.08c0-6.01,1.98-10.66,5.64-16.45l15.99-25.36h15.69l-14.09,21.02c.38-.15,1.06-.3,1.75-.3,12.11,0,22.08,8.45,22.08,21.02s-10.51,21.78-23.53,21.78-23.53-8.45-23.53-21.7Zm33.58,.08c0-5.56-3.88-9.9-10.05-9.9s-10.05,4.34-10.05,9.9,3.88,9.9,10.05,9.9,10.05-4.34,10.05-9.9Z"/>
    </g>
  </g>
</svg>