<?xml version="1.0" encoding="UTF-8"?>
<svg xmlns="http://www.w3.org/2000/svg" xmlns:xlink="http://www.w3.org/1999/xlink" viewBox="0 0 190.36 36.76">
  <defs>
    <style>
      .cls-1 {
        fill: #fff;
      }

      .cls-2 {
        clip-path: url(#clippath);
      }

      .cls-3 {
        fill: none;
      }
    </style>
    <clipPath id="clippath">
      <rect class="cls-3" width="190.36" height="36.76"/>
    </clipPath>
  </defs>
  <g>
    <g>
      <g>
        <g class="cls-2">
          <g>
            <path class="cls-1" d="M95.95,15.2h-7.8v-2.96h1.56V7.94h-1.43v-2.99h11.99v2.99h-1.47v4.19c.6-.05,1.18-.16,1.76-.31v2.9c-1.51,.36-3.06,.53-4.61,.49m10.74,4.75c0,3.01-3.83,4.03-8.69,4.03s-8.69-1.02-8.69-4.03,3.83-4.03,8.69-4.03,8.69,1.02,8.69,4.03m-13.42-7.71h1.96V7.94h-1.96v4.3Zm9.36,7.71c0-.8-2.07-1.09-4.63-1.09s-4.64,.29-4.64,1.09,2.07,1.11,4.64,1.11,4.63-.29,4.63-1.11m.18-6.37h-1.72v-3.01h1.72v-1.3h-1.72v-3.01h1.72v-1.54h3.7V15.6h-3.7v-2.03Z"/>
            <path class="cls-1" d="M108.86,15.51v-3.36c1.94-.31,3.48-2.9,3.48-7.27l3.57,.13c.01,1.27-.12,2.54-.4,3.79l3.63,3.37V4.82h3.48v2.9h1.72v-2.99h3.52V15.8h-3.52v-4.66h-1.72v4.03h-3.48v-2.12l-1.94,1.92-2.99-2.88c-1.06,2-3.09,3.29-5.35,3.41m19.16,4.39c0,3.01-3.95,4.08-8.94,4.08s-8.94-1.07-8.94-4.08,3.94-4.08,8.94-4.08,8.94,1.07,8.94,4.08m-4.01,0c0-.83-2.23-1.11-4.92-1.11s-4.93,.29-4.93,1.11,2.23,1.11,4.93,1.11,4.92-.27,4.92-1.11"/>
            <path class="cls-1" d="M149.04,19.64v3.45h-19.25v-3.45h2.92v-6.62h3.79v6.62h1.98v-6.62h3.79v6.62h6.77Zm-4.86-11.01h-13.42v-3.45h17.27v12.55h-3.86V8.63Z"/>
            <path class="cls-1" d="M165.73,16.4v1.43h3.08v6.15h-3.81v-3.19h-13.3v-2.96h3.17v-1.43h-4.19v-2.99h19.26v2.99h-4.19Zm-14.17-7.82c0-2.9,3.72-4.17,8.74-4.17s8.74,1.27,8.74,4.17-3.72,4.17-8.74,4.17-8.74-1.27-8.74-4.17m4.01,0c0,.85,1.87,1.29,4.72,1.29s4.73-.44,4.73-1.29-1.87-1.29-4.73-1.29-4.72,.47-4.72,1.29m6.46,7.82h-3.48v1.43h3.48v-1.43Z"/>
            <path class="cls-1" d="M190.36,20.62v3.14h-17.29v-6.04h3.03v-1.89h-4.55v-2.9h8.76c1.67,.06,3.34-.17,4.92-.69v2.9c-1.61,.53-3.3,.77-4.99,.69h-.4v2.88h-3.01v1.92h13.53Zm-17.87-12.21c0-2.59,2.41-3.88,5.84-3.88s5.84,1.29,5.84,3.88-2.41,3.88-5.84,3.88-5.84-1.29-5.84-3.88m3.63,0c0,.76,.87,1.11,2.21,1.11s2.21-.36,2.21-1.11-.87-1.11-2.21-1.11-2.21,.36-2.21,1.11m10.2,7.96V4.72h3.77v14.78h-3.77v-.53h-4.9v-2.61h4.9Z"/>
            <path class="cls-1" d="M60.06,9.8c.03,1.97-1.32,3.68-3.23,4.13,2.13,.32,3.72,2.14,3.75,4.29,0,3.7-3.14,6.02-7.12,6.02-4.22,0-6.84-2.36-7.15-6.06h4.22c.07,1.43,1.29,2.54,2.72,2.47,.07,0,.14,0,.2-.02,1.77,0,2.95-.97,2.95-2.38,0-1.6-1.35-2.45-3.35-2.45h-1.91v-3.49h1.91c1.75,0,2.79-.94,2.79-2.41,.04-1.23-.92-2.27-2.16-2.31-.13,0-.26,0-.39,.02-1.36,0-2.47,1.11-2.47,2.47,0,.08,0,.16,.01,.24h-4.22c0-3.66,2.76-6.3,6.7-6.3s6.75,2.34,6.75,5.78"/>
            <path class="cls-1" d="M68.26,18.18h4.22c.02,1.38,1.16,2.47,2.54,2.45,.09,0,.18,0,.27-.02,1.54,.02,2.8-1.21,2.82-2.75,0-.11,0-.21-.01-.32,.16-1.51-.94-2.87-2.45-3.03-.14-.01-.28-.02-.42-.01-1.06-.05-2.08,.44-2.71,1.3h-3.89l.57-11.23h12.15v3.66h-8.26l-.21,3.61c.94-.54,2.01-.82,3.09-.8,3.77,0,6.32,2.43,6.32,6.51s-3.02,6.7-6.98,6.7c-4.18,0-6.72-2.36-7.03-6.06"/>
            <path class="cls-1" d="M57.1,23.87c.05-1.84,.66-3.62,1.75-5.1l4.95-7.86h4.86l-4.36,6.51c.17-.06,.36-.09,.54-.09,3.59-.18,6.65,2.59,6.83,6.18,0,.11,0,.22,0,.33,0,3.94-3.26,6.75-7.29,6.75s-7.29-2.62-7.29-6.72m10.4,.02c.03-1.72-1.35-3.13-3.07-3.16-1.72-.03-3.13,1.35-3.16,3.07s1.35,3.13,3.07,3.16c.02,0,.03,0,.05,0,1.63,.09,3.03-1.17,3.11-2.8,0-.09,0-.18,0-.27"/>
            <path class="cls-1" d="M15.81,15.55l2.56,1.48h0l2.99,1.73,2.78-1.6,8.33-4.81-5.56-3.21h0l-2.78-1.6-.1-.06h-.23l-2.56,1.48h0l-2.56,1.48h0l-2.45,1.41-4.27-2.47-3.42,1.97,7.26,4.19h0Zm5.77-2.84l.21-.12,2.14-1.23,1.71,.99-1.92,1.11-.21,.12-2.14,1.23-1.71-.99,1.92-1.11Z"/>
            <path class="cls-1" d="M21.37,0L0,12.34l2.55,1.47v8.02c-.61,.26-.9,.96-.64,1.57,.13,.32,.39,.56,.71,.67-.17,.08-.32,.19-.45,.33l-.31,2.93c.68,.52,1.63,.52,2.31,0l-.31-2.92c-.13-.14-.28-.25-.44-.33,.62-.22,.95-.91,.73-1.53-.11-.32-.36-.58-.67-.71v-7.49l14.9,8.6v1.98l-12.82-7.4v4.13l12.82,7.22v1.97l-12.82-7.09v3.82l16.24,9.19v-12.34l1.7-.99,3.42-1.97,15.81-9.13L21.37,0Zm12.39,13.57l-12.39,7.15-2.14-1.23h0l-2.56-1.48h0l-2.57-1.48h0l-7.26-4.19,1.71-.99,3.42-1.97,4.39-2.53h0l2.56-1.48h0l2.45-1.41,2.35,1.35,.1,.06,2.46,1.42,.1,.05,2.47,1.43,2.35,1.36h0l2.56,1.48h0l2.14,1.24-1.92,1.11-.22,.12Z"/>
            <path class="cls-1" d="M26.92,21.47l-3.42,1.97v5.92l10.26-5.92v1.97l-10.26,5.93v3.95l13.67-7.9v-9.87l-10.26,5.92v-1.97Z"/>
            <path class="cls-1" d="M88.47,32.66h.88c.03,.75,.66,1.34,1.42,1.31,.04,0,.07,0,.11,0,.95,0,1.52-.54,1.52-1.22,0-.76-.61-1.21-1.63-1.21h-.74v-.74h.74c.86,0,1.45-.49,1.45-1.19-.03-.7-.62-1.24-1.31-1.21-.04,0-.07,0-.11,0-.73-.05-1.36,.51-1.41,1.24,0,.04,0,.08,0,.11h-.89c0-1.18,.96-2.14,2.15-2.13,.05,0,.1,0,.15,0,1.14-.13,2.16,.69,2.29,1.83,0,.04,0,.07,0,.11,0,.74-.5,1.38-1.21,1.56,.8,.11,1.39,.8,1.39,1.6-.07,1.18-1.08,2.08-2.26,2.01-.04,0-.09,0-.13-.01-1.2,.13-2.27-.74-2.4-1.94,0-.04,0-.08,0-.13"/>
            <path class="cls-1" d="M96.49,30.12c1.25-.07,2.32,.89,2.39,2.14,0,.05,0,.1,0,.15-.08,1.36-1.25,2.39-2.61,2.31-1.24-.08-2.24-1.07-2.31-2.31,.02-.68,.25-1.33,.66-1.86l1.84-2.75h1.02l-1.71,2.49c.23-.1,.48-.16,.73-.16m1.52,2.3c.03-.88-.66-1.61-1.54-1.64s-1.61,.66-1.64,1.54,.66,1.61,1.54,1.64c.02,0,.03,0,.05,0,.83,.04,1.53-.59,1.58-1.42,0-.04,0-.08,0-.12"/>
            <path class="cls-1" d="M99.4,32.66h.88c.03,.75,.65,1.33,1.4,1.31,.04,0,.08,0,.12,0,.85-.02,1.52-.72,1.5-1.56-.02-.82-.67-1.48-1.49-1.5-.58-.03-1.13,.28-1.41,.8h-.87l.2-3.9h4.12v.77h-3.3l-.12,2.22c.39-.44,.95-.68,1.53-.65,1.2-.04,2.2,.9,2.24,2.1,0,.06,0,.12,0,.18,.03,1.25-.95,2.29-2.2,2.33-.07,0-.13,0-.2,0-1.19,.13-2.26-.74-2.39-1.93,0-.04,0-.09-.01-.14"/>
            <path class="cls-1" d="M108.44,33.77h3.73v.8h-4.62v-6.78h.89v5.98Z"/>
            <path class="cls-1" d="M114.05,28.07c0,.32-.26,.58-.58,.58-.32,0-.58-.26-.58-.58,0-.32,.26-.58,.58-.58,.31-.01,.57,.23,.58,.54,0,.01,0,.02,0,.03m-1.02,1.66h.87v4.85h-.87v-4.85Z"/>
            <path class="cls-1" d="M117.63,30.5h-1.08v4.07h-.87v-4.07h-.96v-.77h.96v-.82c-.07-.68,.42-1.29,1.1-1.36,.07,0,.13,0,.2,0,.19,0,.38,.01,.57,.05v.73c-.14-.02-.28-.03-.42-.03-.31-.01-.57,.22-.58,.53,0,.03,0,.07,0,.1v.8h1.08v.76Z"/>
            <path class="cls-1" d="M117.98,32.16c-.07-1.34,.97-2.48,2.31-2.55,1.34-.07,2.48,.97,2.55,2.31,0,.08,0,.16,0,.24,0,.12,0,.24-.02,.36h-3.96c.05,.82,.74,1.46,1.56,1.45,.55,.04,1.07-.23,1.36-.7h.89c-.35,.92-1.26,1.5-2.24,1.44-1.33,.01-2.42-1.06-2.43-2.39,0-.05,0-.1,0-.15m2.43-1.8c-.82-.01-1.51,.63-1.56,1.45h3.13c-.05-.83-.74-1.46-1.57-1.45"/>
            <rect class="cls-1" x="123.86" y="27.58" width=".87" height="7"/>
            <path class="cls-1" d="M130.72,32.16c-.03,1.37-1.17,2.45-2.54,2.42-1.37-.03-2.45-1.17-2.42-2.54,.03-1.35,1.14-2.42,2.48-2.42,1.35-.02,2.45,1.05,2.48,2.4,0,.05,0,.1,0,.15m-4.1,0c.08,.9,.87,1.56,1.76,1.48,.9-.08,1.56-.87,1.48-1.76-.07-.84-.77-1.48-1.62-1.48-.91,0-1.64,.75-1.63,1.66,0,.04,0,.08,0,.11"/>
            <path class="cls-1" d="M132.62,29.73v.74c.36-.55,.98-.88,1.64-.86,1.06-.02,1.94,.83,1.96,1.9,0,.08,0,.15,0,.23v2.84h-.87v-2.68c0-.98-.47-1.52-1.26-1.52-.87,.07-1.52,.82-1.46,1.69v2.51h-.87v-4.84h.87Z"/>
            <path class="cls-1" d="M137.44,35.03h.89c.15,.64,.76,1.05,1.41,.97,.79,.04,1.46-.57,1.49-1.36,0-.06,0-.12,0-.18v-.67c-.39,.56-1.04,.88-1.72,.84-1.38-.06-2.46-1.23-2.4-2.62,.06-1.3,1.1-2.34,2.4-2.4,.68-.04,1.33,.28,1.72,.84v-.72h.87v4.74c.03,1.23-.94,2.26-2.17,2.29-.06,0-.13,0-.19,0-1.1,.11-2.09-.64-2.3-1.72m3.8-2.9c.05-.91-.64-1.69-1.55-1.74-.04,0-.07,0-.11,0-.96,.07-1.69,.91-1.61,1.88,.07,.86,.75,1.55,1.61,1.61,.91,0,1.65-.72,1.66-1.63,0-.04,0-.07,0-.11"/>
            <path class="cls-1" d="M150.53,27.79v.79h-3.93v2.14h3.63v.79h-3.63v2.29h4.01v.79h-4.9v-6.79h4.83Z"/>
            <path class="cls-1" d="M151.22,32.16c-.07-1.33,.95-2.47,2.29-2.54,.04,0,.08,0,.11,0,.68-.04,1.33,.28,1.72,.84v-2.87h.87v7h-.87v-.72c-.39,.56-1.04,.88-1.72,.84-1.33,0-2.41-1.09-2.4-2.43,0-.04,0-.08,0-.12m4.13,0c.06-.91-.63-1.71-1.55-1.77-.04,0-.08,0-.11,0-.98,.09-1.7,.96-1.61,1.93,.08,.85,.75,1.53,1.61,1.61,.92,0,1.66-.74,1.66-1.66,0-.04,0-.08,0-.11"/>
            <path class="cls-1" d="M160.97,34.58v-.74c-.36,.55-.98,.88-1.64,.86-1.06,.02-1.94-.83-1.96-1.9,0-.08,0-.15,0-.23v-2.84h.87v2.69c0,.98,.47,1.52,1.26,1.52,.87-.07,1.52-.82,1.46-1.69v-2.51h.87v4.85h-.87Z"/>
            <path class="cls-1" d="M165.37,34.7c-1.4-.02-2.52-1.18-2.5-2.58,.02-1.37,1.12-2.47,2.48-2.5,1.08-.03,2.03,.7,2.28,1.75h-.89c-.19-.6-.76-.99-1.39-.97-.98,.09-1.7,.96-1.61,1.93,.08,.85,.75,1.53,1.61,1.61,.64,.02,1.21-.39,1.41-.99h.89c-.25,1.05-1.2,1.79-2.28,1.76"/>
            <path class="cls-1" d="M168.37,32.16c-.07-1.33,.95-2.47,2.29-2.54,.04,0,.08,0,.11,0,.68-.04,1.33,.28,1.72,.84v-.72h.87v4.85h-.87v-.72c-.39,.56-1.04,.88-1.72,.84-1.33,0-2.41-1.09-2.4-2.43,0-.04,0-.08,0-.12m4.13,0c.06-.91-.63-1.71-1.55-1.77-.04,0-.08,0-.11,0-.98,.09-1.7,.96-1.61,1.93,.08,.85,.75,1.53,1.61,1.61,.92,0,1.66-.74,1.66-1.66,0-.04,0-.08,0-.11"/>
            <path class="cls-1" d="M177.19,30.5h-1.08v4.08h-.87v-4.08h-1.08v-.77h1.08v-1.47h.87v1.47h1.08v.77Z"/>
            <path class="cls-1" d="M179.02,28.07c0,.32-.26,.58-.58,.58-.32,0-.58-.26-.58-.58,0-.32,.26-.58,.58-.58,.31-.01,.57,.23,.58,.54,0,.01,0,.02,0,.03m-1.02,1.66h.87v4.85h-.87v-4.85Z"/>
            <path class="cls-1" d="M184.86,32.16c-.03,1.37-1.17,2.45-2.54,2.42-1.37-.03-2.45-1.17-2.42-2.54,.03-1.35,1.14-2.42,2.48-2.42,1.35-.02,2.45,1.05,2.48,2.4,0,.05,0,.1,0,.15m-4.1,0c.08,.9,.87,1.56,1.76,1.48,.9-.08,1.56-.87,1.48-1.76-.07-.84-.77-1.48-1.62-1.48-.91,0-1.64,.75-1.63,1.66,0,.04,0,.08,0,.11"/>
            <path class="cls-1" d="M186.76,29.73v.74c.36-.55,.98-.88,1.64-.86,1.06-.02,1.94,.83,1.96,1.9,0,.08,0,.15,0,.23v2.84h-.87v-2.68c0-.98-.47-1.52-1.26-1.52-.87,.07-1.52,.82-1.46,1.69v2.51h-.87v-4.84h.87Z"/>
          </g>
        </g>
      </g>
    </g>
  </g>
</svg>