<?xml version="1.0" encoding="UTF-8"?><svg id="_레이어_2" xmlns="http://www.w3.org/2000/svg" viewBox="0 0 461.18 47.41"><defs><style>.cls-1{fill:#003668;}.cls-2{fill:#e6002d;}.cls-3{fill:#998468;}.cls-4{fill:#595757;}</style></defs><g id="_레이어_1-2"><g><g><path class="cls-3" d="M168.57,23.23h7.08v-3.65h2.88v3.65h8.9v2.37h-18.85v-2.37Zm16.73,7.65c-.02,2.47-2.88,3.94-7.42,3.93-4.51,.01-7.41-1.46-7.4-3.93-.01-2.5,2.89-3.95,7.4-3.95s7.4,1.45,7.42,3.95Zm-14.61-16.04h14.5v1.7c.01,1.67,.01,3.46-.59,5.61l-2.85-.28c.47-1.9,.53-3.31,.55-4.73h-11.6v-2.3Zm7.19,17.74c2.86,0,4.52-.57,4.52-1.7s-1.65-1.78-4.52-1.77c-2.86-.01-4.51,.61-4.5,1.77-.01,1.13,1.63,1.7,4.5,1.7Z"/><path class="cls-3" d="M201.58,23.05l-1.46,2.3c-2.36-.76-4.01-2.25-4.93-4.16-.94,2.06-2.62,3.69-5.07,4.48l-1.46-2.3c3.47-1.11,5-3.84,5-6.5v-2h3.04v2c-.02,2.61,1.46,5.15,4.88,6.18Zm-9.75,4.23h14.29v7.54h-2.92v-5.19h-11.37v-2.34Zm11.37-13.37h2.92v12.48h-2.92V13.9Z"/><path class="cls-3" d="M214.94,15.26c3.18-.01,5.67,2.19,5.68,5.26-.01,3.11-2.5,5.31-5.68,5.31s-5.68-2.19-5.68-5.31,2.49-5.27,5.68-5.26Zm0,8.02c1.57,0,2.8-1.01,2.81-2.76-.01-1.7-1.23-2.72-2.81-2.71-1.63-.01-2.85,1.01-2.83,2.71-.02,1.75,1.2,2.76,2.83,2.76Zm-2.53,4.16h2.94v4.66h11.53v2.34h-14.47v-7.01Zm13.92,1.52h-2.92V13.93h2.92v15.03Z"/><path class="cls-3" d="M248.08,25.9h-18.95v-2.37h18.95v2.37Zm-11.58-8.69h-5.63v-2.34h15.5v2.34h-5.67c.47,1.46,2.59,2.91,6.59,3.26l-1.03,2.3c-3.93-.38-6.56-1.87-7.67-3.9-1.1,2.02-3.71,3.52-7.65,3.9l-.96-2.3c3.9-.36,6.04-1.79,6.52-3.26Zm2.09,9.86c4.51,0,7.21,1.42,7.24,3.88-.02,2.47-2.73,3.87-7.24,3.86-4.54,.01-7.28-1.39-7.28-3.86s2.74-3.88,7.28-3.88Zm0,5.47c2.82,0,4.3-.51,4.31-1.59-.01-1.09-1.5-1.61-4.31-1.61s-4.33,.52-4.31,1.61c-.01,1.08,1.44,1.59,4.31,1.59Z"/><path class="cls-3" d="M259.86,17.47h-4.27v-2.34h11.41v2.34h-4.18c.01,2.46,1.56,5.01,4.95,6.04l-1.48,2.28c-2.33-.74-3.96-2.24-4.9-4.14-.95,2.07-2.64,3.71-5.08,4.53l-1.51-2.28c3.44-1.11,5.02-3.83,5.04-6.43Zm-2.03,9.95h14.29v7.4h-2.92v-5.06h-11.37v-2.34Zm14.29-.92h-2.92V13.9h2.92v12.59Z"/><path class="cls-3" d="M286.06,18.55h3.48v-4.64h2.9v11.24h-2.9v-4.25h-3.47c-.54,2.3-2.67,3.86-5.34,3.86-3.2,0-5.55-2.09-5.52-5.01-.02-2.86,2.33-4.96,5.52-4.94,2.65-.02,4.76,1.51,5.33,3.75Zm-5.33,3.75c1.57,0,2.71-.99,2.72-2.55-.01-1.56-1.14-2.52-2.72-2.5-1.63-.01-2.77,.94-2.76,2.5-.01,1.56,1.13,2.55,2.76,2.55Zm-2.15,3.77h2.88v2.02h8.08v-2.02h2.9v8.53h-13.86v-8.53Zm10.96,6.16v-1.88h-8.08v1.88h8.08Z"/><path class="cls-3" d="M295.13,23.28h18.99v2.39h-18.99v-2.39Zm9.45,3.7c4.51,.01,7.21,1.41,7.24,3.88-.02,2.49-2.73,3.88-7.24,3.88s-7.28-1.39-7.28-3.88,2.74-3.87,7.28-3.88Zm7.4-5.49h-14.45v-7.26h2.9v4.92h11.55v2.34Zm-7.4,11.03c2.82-.01,4.3-.56,4.31-1.65-.01-1.11-1.5-1.59-4.31-1.61-2.88,.02-4.33,.49-4.31,1.61-.01,1.09,1.44,1.64,4.31,1.65Z"/><path class="cls-3" d="M325.31,21.65h-6.28v2.23c3.08,0,4.93-.1,7.03-.51l.27,2.34c-2.43,.44-4.61,.49-8.63,.51h-1.55v-6.76h6.23v-2.05h-6.28v-2.3h9.2v6.53Zm-6.78,6.09h14.31v7.08h-2.9v-4.73h-11.41v-2.34Zm7.97-6.48h3.45v-2.11h-3.45v-2.32h3.45v-2.9h2.9v12.87h-2.9v-3.22h-3.45v-2.32Z"/><path class="cls-3" d="M341.74,18.82h-5.4v-2.34h8.24c-.01,5.84-1.75,10.62-7.6,14.04l-1.69-2.02c4.23-2.5,6.06-5.57,6.45-9.67Zm11.72,15.99h-2.81v-10.64h-1.9v9.72h-2.72V14.46h2.72v7.38h1.9v-7.93h2.81v20.91Z"/><path class="cls-3" d="M359.26,17.33h4.25v-2.48h2.92v9.12h-10.07V14.85h2.9v2.48Zm-.82,8h13.79v5.68h-10.89v1.36h11.48v2.32h-14.34v-5.77h10.84v-1.31h-10.89v-2.27Zm5.07-3.65v-2.14h-4.25v2.14h4.25Zm5.8-7.77h2.92v4.07h2.81v2.37h-2.81v4.21h-2.92V13.9Z"/><path class="cls-3" d="M394.71,24.18l.18,2.16c-1.71,.34-3.47,.56-5.2,.7v7.16h-2.9v-6.99c-1.83,.08-3.55,.09-5.04,.11l-.37-2.39c3.69-.01,8.9-.08,13.33-.76Zm-1.12-4.96c0,2.61-2.31,4.46-5.48,4.44-3.16,.02-5.47-1.83-5.46-4.44-.01-2.63,2.29-4.46,5.46-4.44,3.17-.02,5.48,1.8,5.48,4.44Zm-5.48,2.05c1.6,.02,2.72-.74,2.72-2.05s-1.12-2.1-2.72-2.09c-1.55-.01-2.66,.76-2.65,2.09-.01,1.31,1.1,2.07,2.65,2.05Zm7.85-7.33h2.88v20.89h-2.88V13.93Z"/><path class="cls-3" d="M412.13,17.6h-6.87v1.75h6.44v2.25h-6.44v1.82c3.37-.02,5.56-.14,7.99-.57l.32,2.3c-2.8,.49-5.32,.6-9.52,.6h-1.73V15.28h9.82v2.32Zm-8.1,9.81h13.99v7.4h-2.92v-5.08h-11.07v-2.32Zm11.07-13.51h2.92v5.1h2.81v2.44h-2.81v5.1h-2.92V13.9Z"/><path class="cls-3" d="M430,18.38h-7.08v-2.3h10.04c-.01,6.34-2.21,11.62-9.63,15.14l-1.53-2.34c5.36-2.55,7.73-5.86,8.2-10.5Zm9.2,16.43h-2.94V13.9h2.94v20.91Z"/><path class="cls-3" d="M445.53,24.35v-4.1h2.9v4.01c2.08-.09,4.19-.25,6.14-.54l.16,2.11c-4.33,.8-9.19,.88-12.81,.9l-.25-2.34c1.16,0,2.48,0,3.86-.03Zm8.06-7.62c0,1.45,0,3.54-.48,6.14l-2.85-.28c.38-2,.47-3.53,.49-4.78h-7.84v-2.39h10.68v1.31Zm-8.86,11.42h2.92v3.95h11.66v2.34h-14.59v-6.3Zm10.96-14.25h2.99v6.37h2.51v2.46h-2.51v6.82h-2.99V13.9Z"/></g><g><g><path class="cls-4" d="M67.82,31.46v-6.06h2.36v6.06h8.6v2.12h-17.95v-2.12h6.98Zm7.09-3.44v-9.37h-12.63v-2.17h15.06v11.54h-2.43Z"/><path class="cls-4" d="M84.7,24.58v-1.82h2.23v1.82h5.38v-1.82h2.23v1.82h4.05v2.06h-17.95v-2.06h4.05Zm9.57,7.07c0,.58-.12,1.14-.37,1.65-.25,.52-.58,.97-1.01,1.35-.41,.39-.89,.71-1.45,.94-.56,.23-1.16,.35-1.79,.35s-1.23-.12-1.8-.35c-.57-.23-1.06-.55-1.49-.94-.41-.38-.74-.83-.99-1.35-.25-.52-.37-1.07-.37-1.65s.12-1.13,.37-1.65c.25-.52,.58-.97,.99-1.37,.42-.39,.92-.7,1.49-.93,.57-.23,1.17-.34,1.8-.34s1.22,.11,1.79,.34c.56,.23,1.05,.54,1.45,.93,.42,.39,.76,.85,1.01,1.37,.25,.52,.37,1.07,.37,1.65Zm-.04-12.89c0,.58-.12,1.13-.37,1.64-.25,.51-.58,.96-1.01,1.36-.39,.38-.87,.69-1.42,.92-.55,.23-1.14,.35-1.77,.35s-1.22-.12-1.78-.35c-.56-.23-1.04-.54-1.44-.92-.42-.39-.76-.85-1.01-1.36-.25-.51-.37-1.06-.37-1.64s.13-1.11,.37-1.63c.25-.52,.58-.97,1.01-1.37,.39-.38,.87-.69,1.44-.92,.56-.23,1.16-.35,1.78-.35s1.22,.12,1.77,.35c.55,.23,1.03,.54,1.42,.92,.42,.39,.76,.85,1.01,1.37,.25,.52,.37,1.06,.37,1.63Zm-2.32,12.85c0-.61-.22-1.14-.67-1.57-.45-.43-.98-.65-1.61-.65s-1.16,.22-1.6,.65c-.44,.43-.66,.95-.66,1.57s.22,1.14,.66,1.58c.44,.44,.97,.66,1.6,.66s1.16-.22,1.61-.66c.44-.44,.67-.96,.67-1.58Zm-.04-12.85c0-.58-.22-1.09-.66-1.53s-.96-.66-1.58-.66-1.14,.22-1.56,.66c-.43,.44-.65,.95-.65,1.53s.21,1.12,.65,1.55c.43,.44,.95,.66,1.56,.66s1.14-.22,1.58-.66,.66-.96,.66-1.55Z"/><path class="cls-4" d="M118.56,31.44v2.15h-17.95v-2.15h7.75v-4.71h-6.3v-10.4h2.43v8.25h12.92v2.15h-6.61v4.71h7.77Z"/><path class="cls-4" d="M128.58,24.19v-1.82h-6.3v-6.65h15.08v2.06h-12.67v2.56h12.72v2.04h-6.39v1.82h7.77v2.06h-17.95v-2.06h7.75Zm6.02,7.14c0,.61-.13,1.19-.38,1.74-.26,.55-.6,1.02-1.02,1.41-.45,.41-.97,.73-1.54,.97-.58,.24-1.19,.36-1.85,.36s-1.27-.12-1.85-.36c-.58-.24-1.09-.57-1.54-.97-.42-.39-.76-.86-1.02-1.41-.26-.55-.38-1.13-.38-1.74s.13-1.19,.38-1.74c.25-.55,.59-1.02,1.02-1.41,.45-.41,.97-.73,1.54-.97,.58-.24,1.19-.36,1.85-.36s1.27,.12,1.85,.36c.58,.24,1.09,.57,1.54,.97,.42,.39,.76,.86,1.02,1.41,.25,.55,.38,1.13,.38,1.74Zm-2.34-.04c0-.67-.24-1.24-.72-1.72-.48-.47-1.06-.71-1.73-.71s-1.25,.24-1.73,.71c-.48,.47-.72,1.05-.72,1.72s.24,1.24,.72,1.71,1.06,.7,1.73,.7,1.25-.23,1.73-.7c.48-.47,.72-1.04,.72-1.71Z"/><path class="cls-4" d="M141.28,27.83h17.95v2.15h-7.77v5.03h-2.43v-5.03h-7.75v-2.15Zm3.83-9.54h10.27v-2.47h2.41v9.39h-15.06V15.81h2.39v2.47Zm10.27,2.1h-10.27v2.69h10.27v-2.69Z"/></g><g><path class="cls-1" d="M36.61,22.63c-4.12-2.8-9.39-1.66-12.16,2.55-2.31,3.52-5.8,3.95-7.16,3.95-4.4,0-7.42-3.1-8.31-6.31h0s-.01-.06-.02-.09c0-.04-.02-.07-.03-.11-.35-1.34-.44-1.98-.44-3.4,0-7.67,7.87-16.21,19.2-16.21s18.24,8.83,19.95,13.74c-.03-.09-.06-.17-.09-.26C44.26,6.9,35.15,0,24.43,0,10.94,0,0,10.94,0,24.43c0,12.06,8.7,22.39,20.77,22.39,9.63,0,16.09-5.4,19.06-12.83,1.63-4.07,.48-8.85-3.22-11.36Z"/><path class="cls-2" d="M47.79,17.24c-1.43-4.79-8.12-14.22-20.1-14.22-11.33,0-19.2,8.54-19.2,16.21,0,1.42,.09,2.06,.44,3.4-.15-.58-.23-1.17-.23-1.74,0-7.99,8-13.52,16.22-13.52,11.13,0,20.15,9.02,20.15,20.14,0,8.72-5.02,16.27-12.31,19.9h0c9.4-3.4,16.11-12.4,16.11-22.98,0-2.5-.34-4.71-1.07-7.19Z"/></g></g></g></g></svg>